<?xml version="1.0" encoding="UTF-8" standalone="no"?>
<svg
   xmlns:dc="http://purl.org/dc/elements/1.1/"
   xmlns:cc="http://creativecommons.org/ns#"
   xmlns:rdf="http://www.w3.org/1999/02/22-rdf-syntax-ns#"
   xmlns:svg="http://www.w3.org/2000/svg"
   xmlns="http://www.w3.org/2000/svg"
   xmlns:sodipodi="http://sodipodi.sourceforge.net/DTD/sodipodi-0.dtd"
   xmlns:inkscape="http://www.inkscape.org/namespaces/inkscape"
   viewBox="0 0 454.26251 119.294"
   height="119.294"
   width="454.26251"
   xml:space="preserve"
   version="1.1"
   id="svg2"
   sodipodi:docname="Citi Bike.svg"
   inkscape:version="0.92.1 r15371"><sodipodi:namedview
     pagecolor="#ffffff"
     bordercolor="#666666"
     borderopacity="1"
     objecttolerance="10"
     gridtolerance="10"
     guidetolerance="10"
     inkscape:pageopacity="0"
     inkscape:pageshadow="2"
     inkscape:window-width="1920"
     inkscape:window-height="1017"
     id="namedview18"
     showgrid="false"
     fit-margin-top="0"
     fit-margin-left="0"
     fit-margin-right="0"
     fit-margin-bottom="0"
     inkscape:zoom="1.3252249"
     inkscape:cx="217.45017"
     inkscape:cy="86.909928"
     inkscape:window-x="-8"
     inkscape:window-y="-8"
     inkscape:window-maximized="1"
     inkscape:current-layer="svg2" /><metadata
     id="metadata8"><rdf:RDF><cc:Work
         rdf:about=""><dc:format>image/svg+xml</dc:format><dc:type
           rdf:resource="http://purl.org/dc/dcmitype/StillImage" /><dc:title></dc:title></cc:Work></rdf:RDF></metadata><defs
     id="defs6" /><g
     transform="matrix(1.25,0,0,-1.25,0,119.294)"
     id="g10"><g
       transform="scale(0.1)"
       id="g12"><path
         id="path14"
         style="fill:#ea1f29;fill-opacity:1;fill-rule:evenodd;stroke:none"
         d="m 1498.57,702.926 c -111.16,157.527 -295.85,251.426 -483.74,251.426 -187.799,0 -372.525,-93.899 -483.521,-251.426 l -5.672,-8.078 h 139.988 l 1.492,1.632 c 95.395,98.407 219.778,150.379 347.713,150.379 128,0 252.38,-51.972 347.88,-150.379 l 1.55,-1.632 h 139.94 l -5.63,8.078 v 0"
         inkscape:connector-curvature="0" /><path
         id="path16"
         style="fill:#263571;fill-opacity:1;fill-rule:nonzero;stroke:none"
         d="m 454.07,186.094 -2.617,-2.637 c -43.074,-43.769 -92.82,-67.012 -144.082,-67.012 -107.066,0 -184.726,80.293 -184.726,191.09 0,110.528 77.66,190.926 184.726,190.926 51.262,0 101.008,-23.27 144.082,-67.156 l 2.617,-2.766 68.852,83.332 -1.887,2.254 C 463.84,581.801 395.145,614.664 310.664,614.664 225.996,614.664 148.523,586.129 92.7031,534.672 32.0391,479.02 0,400.504 0,307.535 0,214.57 32.0391,135.859 92.7031,80.1172 148.523,28.4766 225.996,0.117188 310.664,0.117188 c 84.481,0 153.176,32.851612 210.371,100.468812 l 1.887,2.148 -68.852,83.36"
         inkscape:connector-curvature="0" /><path
         id="path18"
         style="fill:#263571;fill-opacity:1;fill-rule:nonzero;stroke:none"
         d="m 592.48,11.4258 h 121.59 v 593.609 H 592.48 Z"
         inkscape:connector-curvature="0" /><path
         id="path20"
         style="fill:#263571;fill-opacity:1;fill-rule:nonzero;stroke:none"
         d="m 1190.38,140.547 c -32.43,-19.785 -62.63,-29.746 -89.74,-29.746 -39.26,0 -57.06,20.664 -57.06,66.933 V 492.66 h 123.87 V 604.496 H 1043.58 V 789.242 L 924.375,725.445 V 604.496 H 821.633 V 492.66 H 924.375 V 157.598 c 0,-91.2503 54.07,-153.59409 134.825,-155.31284 54.83,-1.05469 87.85,15.33204 107.95,27.28514 l 1.19,0.8594 29.25,114.4923 -7.21,-4.375"
         inkscape:connector-curvature="0" /><path
         id="path22"
         style="fill:#263571;fill-opacity:1;fill-rule:nonzero;stroke:none"
         d="m 1291.14,11.4258 h 121.719 v 593.609 H 1291.14 Z"
         inkscape:connector-curvature="0" /><path
         id="path24"
         style="fill:#39a2e1;fill-opacity:1;fill-rule:nonzero;stroke:none"
         d="m 2454.52,11.4258 c 8.83,0 16,7.7148 16,17.2265 V 589.02 c 0,9.128 -6.92,16.015 -16,16.015 h -125.74 c -9.45,0 -17.2,-7.226 -17.2,-16.015 V 28.6523 c 0,-9.1992 8.08,-17.2265 17.2,-17.2265 z m -62.81,866.1682 c 57.03,0 103.38,-46.457 103.38,-103.489 0,-57.078 -46.35,-103.464 -103.38,-103.464 -57.11,0 -103.57,46.386 -103.57,103.464 0,57.032 46.46,103.489 103.57,103.489"
         inkscape:connector-curvature="0" /><path
         id="path26"
         style="fill:#39a2e1;fill-opacity:1;fill-rule:nonzero;stroke:none"
         d="m 2716.73,27.4609 c 0,-9.1406 -6.89,-16.0351 -15.96,-16.0351 h -125.74 c -9.51,0 -17.21,7.2265 -17.21,16.0351 V 821.344 c 0,8.828 7.7,16.023 17.21,16.023 h 125.74 c 9.07,0 15.96,-6.875 15.96,-16.023 V 27.4609"
         inkscape:connector-curvature="0" /><path
         id="path28"
         style="fill:#39a2e1;fill-opacity:1;fill-rule:nonzero;stroke:none"
         d="m 2905.67,11.4258 c -15.74,0 -23.63,0.4883 -30.57,11.3086 L 2703.25,301.52 2880.64,591.313 c 7.37,11.457 17.22,13.722 31.82,13.722 h 117.35 c 11.81,0 13.68,-6.562 13.68,-10.176 0,-5.468 -3.18,-11.035 -8.61,-19.582 L 2861.1,316.188 3048.11,38.418 c 6.14,-8.9649 8.38,-13.0664 8.38,-16.8555 0,-3.5156 -0.78,-10.1367 -13.75,-10.1367 h -137.07"
         inkscape:connector-curvature="0" /><path
         id="path30"
         style="fill:#39a2e1;fill-opacity:1;fill-rule:nonzero;stroke:none"
         d="m 3022.86,303.305 c 0,173.351 118.75,311.535 285.47,311.535 172.06,0 270.01,-147.539 270.01,-289.297 v -29.277 c 0,-20.207 -9.93,-23.028 -20.67,-23.028 h -379.76 c 5.15,-79.508 61.51,-136.109 135.87,-136.109 47.88,0 90.58,25.117 123.86,67.363 6.66,7.793 13.81,17.715 22.77,17.715 3.54,0 9.34,-1.035 14.08,-4.219 l 81.43,-51.816 c 7.93,-4.59 12.76,-9.824 12.76,-15.996 0,-3.692 -1.91,-8.203 -4.83,-14.043 C 3517.61,48.5938 3419.45,0 3311.5,0 3134,0 3022.86,134.668 3022.86,303.305 m 155.9,71.574 h 264.99 c -11.29,75.332 -71.05,116.797 -132.41,116.797 -61.56,0 -121.34,-41.465 -132.58,-116.797"
         inkscape:connector-curvature="0" /><path
         id="path32"
         style="fill:#39a2e1;fill-opacity:1;fill-rule:nonzero;stroke:none"
         d="m 1943.87,141.25 c -78.82,0 -142.92,73.926 -142.92,164.742 0,90.899 64.1,164.735 142.92,164.735 78.84,0 142.91,-73.836 142.91,-164.735 0,-90.816 -64.07,-164.742 -142.91,-164.742 z m 14.09,473.59 c -65.26,0 -121.67,-20.715 -153.25,-53.77 v 260.274 c 0,9.578 -8.25,16.023 -16.03,16.023 h -124.53 c -9.17,0 -16.02,-6.875 -16.02,-16.023 V 27.4609 c 0,-9.1406 6.85,-16.0351 16.02,-16.0351 h 124.44 c 9.18,0 16.03,6.8945 16.03,16.0351 l 0.09,22.5586 C 1838.09,13.2031 1905.12,0 1956.75,0 c 154.32,0 289.68,118.262 289.68,309.137 0,190.937 -135.36,305.703 -288.47,305.703"
         inkscape:connector-curvature="0" /><path
         id="path34"
         style="fill:#39a2e1;fill-opacity:1;fill-rule:nonzero;stroke:none"
         d="m 3601.32,37.7539 h 3.04 c 3.59,0 6.48,1.1524 6.48,4.0625 0,2.5586 -1.85,4.2578 -5.93,4.2578 -1.73,0 -2.9,-0.1953 -3.59,-0.332 z m -0.16,-15.8203 h -6.46 v 27.8516 c 2.54,0.5273 6.12,0.8593 10.71,0.8593 5.25,0 7.62,-0.8593 9.67,-2.0312 1.53,-1.1914 2.72,-3.3985 2.72,-6.1133 0,-3.0664 -2.39,-5.4492 -5.78,-6.4648 v -0.3321 c 2.71,-1.0156 4.25,-3.0664 5.09,-6.7773 0.85,-4.2578 1.35,-5.957 2.06,-6.9922 h -6.97 c -0.85,1.0352 -1.36,3.5937 -2.22,6.8164 -0.49,3.0469 -2.2,4.4141 -5.76,4.4141 h -3.06 z M 3584,36.5625 c 0,-12.4219 9.19,-22.2461 21.74,-22.2461 12.22,0 21.22,9.8242 21.22,22.0703 0,12.3828 -9,22.4024 -21.4,22.4024 -12.37,0 -21.56,-10.0196 -21.56,-22.2266 z m 50.1,0 c 0,-15.8008 -12.39,-28.18359 -28.54,-28.18359 -15.94,0 -28.7,12.38279 -28.7,28.18359 0,15.4492 12.76,27.8516 28.7,27.8516 16.15,0 28.54,-12.4024 28.54,-27.8516"
         inkscape:connector-curvature="0" /></g></g></svg>